<svg width="86" height="86" viewBox="0 0 86 86" fill="none" xmlns="http://www.w3.org/2000/svg">
<path d="M70.36 11.148C63.01 4.82801 53.455 1 43 1C19.803 1 1 19.805 1 43C1 53.455 4.82801 63.01 11.148 70.36" stroke="#70CF29" stroke-miterlimit="10"/>
<path d="M15.373 74.6211C22.759 81.0781 32.4181 85.0001 43.0001 85.0001C66.1961 85.0001 85.0001 66.1951 85.0001 43.0001C85.0001 32.4191 81.078 22.759 74.621 15.373" stroke="#3FA9F5" stroke-miterlimit="10"/>
<path d="M39.8773 39.0749C44.9863 39.0749 49.1433 34.9189 49.1433 29.8099C49.1433 24.7009 44.9873 20.5459 39.8773 20.5459C34.7673 20.5459 30.6113 24.7009 30.6113 29.8099C30.6113 34.9189 34.7683 39.0749 39.8773 39.0749ZM39.8773 22.5469C43.8833 22.5469 47.1433 25.8059 47.1433 29.8109C47.1433 33.8169 43.8833 37.0759 39.8773 37.0759C35.8713 37.0759 32.6113 33.8169 32.6113 29.8109C32.6113 25.8059 35.8713 22.5469 39.8773 22.5469Z" fill="#3FA9F5"/>
<path d="M43 57.9998H26.032C26.514 50.5698 32.34 44.8867 39.689 44.8867C42.406 44.8867 44.585 45.4258 46.545 46.5818L47.561 44.8588C45.28 43.5128 42.779 42.8857 39.689 42.8857C30.891 42.8857 24 49.9637 24 58.9987V59.9987H43V57.9998Z" fill="#3FA9F5"/>
<path d="M67.7284 66.018L61.9474 58.95C62.6134 57.784 62.9994 56.437 62.9994 55.001C62.9994 50.59 59.4104 47.001 54.9994 47.001C50.5884 47.001 46.9994 50.59 46.9994 55.001C46.9994 56.438 47.3854 57.784 48.0514 58.95L42.2704 66.018C42.0244 66.319 41.9754 66.736 42.1444 67.085C42.3134 67.434 42.6394 67.653 43.0594 67.65L46.9784 67.593L48.3714 71.228C48.5114 71.594 48.8524 71.844 49.2434 71.869C49.2644 71.87 49.2845 71.871 49.3055 71.871C49.6735 71.871 50.0145 71.668 50.1885 71.341L54.6334 62.982C54.7554 62.988 54.8764 63.001 55.0004 63.001C55.1244 63.001 55.2454 62.988 55.3674 62.982L59.8124 71.341C59.9864 71.668 60.3274 71.871 60.6954 71.871C60.7164 71.871 60.7364 71.87 60.7574 71.869C61.1484 71.845 61.4894 71.595 61.6294 71.228L63.0224 67.593L66.9414 67.65C67.3654 67.658 67.6874 67.434 67.8564 67.085C68.0254 66.736 67.9754 66.318 67.7284 66.018ZM49.4524 68.463L48.5954 66.227C48.4454 65.834 48.1114 65.564 47.6474 65.584L45.1794 65.619L49.2904 60.594C50.1894 61.512 51.3084 62.215 52.5614 62.617L49.4524 68.463ZM48.9994 55C48.9994 51.691 51.6904 49 54.9994 49C58.3084 49 60.9994 51.691 60.9994 55C60.9994 58.309 58.3084 61 54.9994 61C51.6904 61 48.9994 58.309 48.9994 55ZM62.3525 65.584C61.9435 65.569 61.5545 65.834 61.4045 66.227L60.5474 68.463L57.4394 62.617C58.6924 62.215 59.8104 61.512 60.7104 60.594L64.8215 65.619L62.3525 65.584Z" fill="#3FA9F5"/>
</svg>
